# AST/ASF file generated using VICON BodyLanguage
# -----------------------------------------------
:version 1.10
:name VICON
:units
  mass 1.0
  length 0.45
  angle deg
:documentation
   .ast/.asf automatically generated from VICON data using
   VICON BodyBuilder and BodyLanguage model FoxedUp or BRILLIANT.MOD
:root
   order TX TY TZ RX RY RZ
   axis XYZ
   position 0 0 0  
   orientation 0 0 0 
:bonedata
  begin
     id 1 
     name lhipjoint
     direction 0.535335 -0.74333 0.401095 
     length 2.04549 
     axis 0 0 0  XYZ
  end
  begin
     id 2 
     name lfemur
     direction 0.34202 -0.939693 0  
     length 6.95643  
     axis 0 0 20  XYZ
    dof rx ry rz
    limits (-160.0 20.0)
           (-70.0 70.0)
           (-60.0 70.0)
  end
  begin
     id 3 
     name ltibia
     direction 0.34192 -0.939729 0   
     length 5.55969   
     axis 0 0 20   XYZ
    dof rx
    limits (-10.0 170.0)
  end
  begin
     id 4 
     name lfoot
     direction 0.216943 -0.596046 0.773088   
     length 2.27918   
     axis -90 7.62852e-016 20   XYZ
    dof rx rz
    limits (-45.0 90.0)
           (-70.0 20.0)
  end
  begin
     id 5 
     name ltoes
     direction 1.53519e-011 -4.21748e-011 1   
     length 1.05562   
     axis -90 7.62852e-016 20   XYZ
    dof rx
    limits (-90.0 20.0)
  end
  begin
     id 6 
     name rhipjoint
     direction -0.576368 -0.719173 0.38806   
     length 2.1142  
     axis 0 0 0  XYZ 
  end
  begin
     id 7 
     name rfemur
     direction -0.34202 -0.939693 0   
     length 7.07928   
     axis 0 0 -20   XYZ
    dof rx ry rz
    limits (-160.0 20.0)
           (-70.0 70.0)
           (-70.0 60.0)
  end
  begin
     id 8 
     name rtibia
     direction -0.34202 -0.939693 0   
     length 5.79974   
     axis 0 0 -20   XYZ
    dof rx
    limits (-10.0 170.0)
 end
 begin
     id 9 
     name rfoot
     direction -0.189288 -0.520065 0.832888   
     length 2.42173  
     axis -90 -7.62852e-016 -20   XYZ
    dof rx rz
    limits (-45.0 90.0)
           (-20.0 70.0)
  end
  begin
     id 10 
     name rtoes
     direction -1.53574e-011 -4.21658e-011 1   
     length 1.14469   
     axis -90 -7.62852e-016 -20   XYZ
    dof rx
    limits (-90.0 20.0)
  end
  begin
     id 11 
     name lowerback
     direction -0.00135702 0.993803 0.111144   
     length 1.91308   
     axis 0 0 0   XYZ
    dof rx ry rz
    limits (-20.0 45.0)
           (-30.0 30.0)
           (-30.0 30.0)
  end
  begin
     id 12 
     name upperback
     direction -0.0056745 0.999813 0.0184631   
     length 1.9212   
     axis 0 0 0   XYZ
    dof rx ry rz
    limits (-20.0 45.0)
           (-30.0 30.0)
           (-30.0 30.0)
  end
  begin
     id 13 
     name thorax
     direction -0.00733434 0.999426 -0.0330788   
     length 1.94196   
     axis 0 0 0   XYZ
    dof rx ry rz
    limits (-20.0 45.0)
           (-30.0 30.0)
           (-30.0 30.0)
  end
  begin
     id 14 
     name lowerneck
     direction 0.0563074 0.996944 -0.0541571   
     length 2.34257   
     axis 0 0 0   XYZ
    dof rx ry rz
    limits (-20.0 45.0)
           (-30.0 30.0)
           (-30.0 30.0)
  end
  begin
     id 15 
     name upperneck
     direction -0.0544519 0.976166 -0.210085   
     length 2.32506   
     axis 0 0 0   XYZ
    dof rx ry rz
    limits (-20.0 45.0)
           (-30.0 30.0)
           (-30.0 30.0)
  end
  begin
     id 16
     name head
     direction -0.0226035 0.997615 -0.0652205  
     length 2.3648  
     axis 0 0 0   XYZ
    dof rx ry rz
    limits (-20.0 45.0)
           (-30.0 30.0)
           (-30.0 30.0)
  end
  begin
     id 17 
     name lclavicle
     direction 0.92109 0.381297 -0.0787716  
     length 4.0487  
     axis 0 0 0   XYZ
    dof ry rz
    limits (-20.0 10.0)
           (0.0 20.0)
  end
  begin
     id 18 
     name lhumerus
     direction 1 -4.48986e-011 3.56724e-027   
     length 4.94991   
     axis 180 -30 -90   XYZ
    dof rx ry rz
    limits (-60.0 90.0)
           (-90.0 90.0)
           (-90.0 90.0)
  end
  begin
     id 19
     name lradius
     direction 1 -4.48981e-011 8.62147e-027   
     length 2.7606   
     axis 180 -30 -90   XYZ
    dof rx
    limits (-10.0 170.0)
  end
  begin
     id 20
     name lwrist
     direction 1 -4.48989e-011 1.59799e-026   
     length 1.3803   
     axis -1.17785e-014 90 90   XYZ
    dof ry
    limits (-180.0 0.0)
 end
  begin
     id 21 
     name lhand
     direction 1 -4.48896e-011 3.19599e-026   
     length 0.843936   
     axis -2.03931e-014 90 90   XYZ
    dof rx rz
    limits (-90.0 90.0)
           (-45.0 45.0)
  end
  begin
     id 22 
     name lfingers
     direction 1 -4.48887e-011 6.39197e-026   
     length 0.680403   
     axis -4.07862e-014 90 90   XYZ
    dof rx
    limits (0.0 90.0)
  end
  begin
     id 23
     name lthumb
     direction 0.707107 -6.348e-011 0.707107   
     length 0.976926   
     axis -90 45 2.85299e-015   XYZ
    dof rx rz
    limits (-45.0 45.0)
           (-45.0 45.0)
  end
  begin
     id 24 
     name rclavicle
     direction -0.951104 0.307692 -0.026953   
     length 4.21801  
     axis 0 0 0   XYZ 
    dof ry rz
    limits (-10.0 20.0)
           (-20.0 0.0)
  end
  begin
     id 25 
     name rhumerus
     direction -1 -4.4896e-011 -1.8171e-018  
     length 4.32982   
     axis 180 30 90   XYZ
    dof rx ry rz
    limits (-90.0 60.0)
           (-90.0 90.0)
           (-90.0 90.0)
  end
  begin
     id 26 
     name rradius
     direction -1 -4.48959e-011 8.25165e-027   
     length 3.20057   
     axis 180 30 90   XYZ
    dof rx
    limits (-10.0 170.0)
  end
  begin
     id 27 
     name rwrist
     direction -1 -4.48997e-011 1.59799e-026   
     length 1.60029   
     axis -1.17785e-014 -90 -90   XYZ
    dof ry
    limits (-180.0 0.0)
  end
  begin
     id 28
     name rhand
     direction -1 -4.49023e-011 3.19599e-026   
     length 0.960433   
     axis -2.03931e-014 -90 -90   XYZ
    dof rx rz
    limits (-90.0 90.0)
           (-45.0 45.0)
  end
  begin
     id 29
     name rfingers
     direction -1 -4.48802e-011 6.39197e-026   
     length 0.774326   
     axis -4.07862e-014 -90 -90   XYZ
    dof rx
    limits (0.0 90.0)
  end
  begin
     id 30
     name rthumb
     direction -0.707107 -6.34876e-011 0.707107   
     length 1.11178   
     axis -90 -45 -2.85299e-015   XYZ
    dof rx rz
    limits (-45.0 45.0)
           (-45.0 45.0)
  end
:hierarchy
  begin
    root lhipjoint rhipjoint lowerback
    lhipjoint lfemur
    lfemur ltibia
    ltibia lfoot
    lfoot ltoes
    rhipjoint rfemur
    rfemur rtibia
    rtibia rfoot
    rfoot rtoes
    lowerback upperback
    upperback thorax
    thorax lowerneck lclavicle rclavicle
    lowerneck upperneck
    upperneck head
    lclavicle lhumerus
    lhumerus lradius
    lradius lwrist
    lwrist lhand lthumb
    lhand lfingers
    rclavicle rhumerus
    rhumerus rradius
    rradius rwrist
    rwrist rhand rthumb
    rhand rfingers
end

#!OML:ASF C:\KaitlinTest1\Natural Motions\Nikki\Session 2\Nikki.ASF
:FULLY-SPECIFIED
:DEGREES
536
root -13.8385 16.736 5.02203 -321.397 92.8846 -330.696
lowerback -12.0144 -1.33445 2.12306
upperback -4.86032 -1.78331 -0.612982
thorax 1.56101 -0.830125 -2.06157
lowerneck -9.03109 -13.2117 -8.12426
upperneck 5.04107 40.7644 5.59706
head 166.265 58.5091 -38.5745
rclavicle -3.04389e-014 7.95139e-016
rhumerus -37.2161 -26.0794 -81.0137
rradius 16.9079
rwrist 21.1336
rhand -36.3371 0.707142
rfingers 7.12502
rthumb -9.43509 -29.0617
lclavicle -3.04389e-014 7.95139e-016
lhumerus -39.9728 18.2238 79.9202
lradius 19.6821
lwrist -42.3867
lhand -32.3739 2.7599
lfingers 7.12502
lthumb -5.60971 32.6656
rfemur -8.96368 -18.6336 21.0643
rtibia 11.8422
rfoot -9.74867 12.7459
rtoes 8.74653e-015
lfemur -15.2916 19.9753 -19.0592
ltibia 14.6207
lfoot -2.01644 -20.3589
ltoes 5.24792e-014
537
root -13.8388 16.7363 5.02087 -321.455 92.9098 -330.776
lowerback -12.0254 -1.33984 2.13014
upperback -4.85634 -1.79167 -0.60757
thorax 1.57065 -0.834161 -2.06137
lowerneck -9.03686 -13.2029 -8.13987
upperneck 5.02564 40.7264 5.58317
head 166.237 58.6068 -38.601
rclavicle 8.49804e-015 7.95139e-016
rhumerus -37.2277 -26.1597 -80.9632
rradius 16.8978
rwrist 21.389
rhand -36.3406 0.788548
rfingers 7.12502
rthumb -9.43847 -28.9801
lclavicle 8.49804e-015 7.95139e-016
lhumerus -39.9239 18.1535 80.0066
lradius 19.6856
lwrist -42.166
lhand -32.3369 2.81151
lfingers 7.12502
lthumb -5.57404 32.7182
rfemur -8.99118 -18.7001 21.0896
rtibia 11.8228
rfoot -9.73822 12.7847
rtoes -3.4191e-014
lfemur -15.3194 19.9259 -19.057
ltibia 14.6276
lfoot -2.02474 -20.3155
ltoes 1.59028e-015
538
root -13.839 16.7368 5.02013 -321.283 92.9345 -330.624
lowerback -12.0294 -1.32496 2.16423
upperback -4.86214 -1.775 -0.621522
thorax 1.56595 -0.82627 -2.09295
lowerneck -9.01256 -13.2145 -8.13891
upperneck 5.0398 40.7451 5.59685
head 166.27 58.567 -38.5802
rclavicle -3.20789e-014 -1.31198e-014
rhumerus -37.261 -26.2012 -80.9477
rradius 16.9098
rwrist 21.4975
rhand -36.3401 0.851173
rfingers 7.12502
rthumb -9.43792 -28.9175
lclavicle -3.20789e-014 -1.31198e-014
lhumerus -39.9145 18.0447 80.0648
lradius 19.7479
lwrist -42.0444
lhand -32.3345 2.84663
lfingers 7.12502
lthumb -5.5717 32.7534
rfemur -9.00893 -18.6906 21.1157
rtibia 11.8089
rfoot -9.72 12.7635
rtoes -1.59028e-014
lfemur -15.3524 19.9263 -19.0479
ltibia 14.6325
lfoot -2.01519 -20.3469
ltoes -3.49861e-014
539
root -13.8397 16.7368 5.02002 -321.714 92.959 -331.019
lowerback -11.9524 -1.32095 2.14926
upperback -4.86362 -1.7674 -0.6178
thorax 1.52371 -0.823243 -2.07752
lowerneck -8.9892 -13.2155 -8.18625
upperneck 5.04394 40.7541 5.58974
head 166.309 58.5422 -38.5495
rclavicle 3.16068e-014 9.93923e-015
rhumerus -37.2938 -26.2395 -80.9058
rradius 16.9058
rwrist 21.5706
rhand -36.3553 0.895462
rfingers 7.12502
rthumb -9.45262 -28.8725
lclavicle 3.16068e-014 9.93923e-015
lhumerus -39.9016 17.9054 80.1828
lradius 19.8068
lwrist -41.8797
lhand -32.2885 2.90581
lfingers 7.12502
lthumb -5.5273 32.8137
rfemur -8.94569 -18.6224 21.0911
rtibia 11.7976
rfoot -9.71738 12.6628
rtoes 9.54166e-015
lfemur -15.3146 19.9 -19.0368
ltibia 14.6351
lfoot -2.02349 -20.3547
ltoes -1.43125e-014
540
root -13.8385 16.7377 5.01919 -321.779 92.9539 -331.103
lowerback -11.9669 -1.31759 2.15124
upperback -4.87029 -1.76273 -0.62314
thorax 1.52463 -0.820803 -2.08389
lowerneck -8.95922 -13.219 -8.19353
upperneck 5.04705 40.7269 5.58213
head 166.269 58.5686 -38.5643
rclavicle 2.45499e-014 1.90833e-014
rhumerus -37.3113 -26.239 -80.9071
rradius 16.9129
rwrist 21.5938
rhand -36.3677 0.911951
rfingers 7.12502
rthumb -9.46462 -28.8555
lclavicle 2.45499e-014 1.90833e-014
lhumerus -39.8893 17.8375 80.2253
lradius 19.8228
lwrist -41.7409
lhand -32.3198 2.8424
lfingers 7.12502
lthumb -5.55753 32.7495
rfemur -8.96054 -18.6557 21.0855
rtibia 11.7785
rfoot -9.69387 12.7059
rtoes 3.57812e-014
lfemur -15.3391 19.8796 -19.0501
ltibia 14.6505
lfoot -2.01647 -20.3363
ltoes 9.54166e-015
541
root -13.8391 16.7367 5.01837 -321.983 92.9661 -331.269
lowerback -11.8352 -1.31824 2.1399
upperback -4.91151 -1.75922 -0.609701
thorax 1.41129 -0.820551 -2.05879
lowerneck -8.89737 -13.2099 -8.24913
upperneck 5.08844 40.8123 5.59151
head 166.303 58.4822 -38.5383
rclavicle -1.2921e-014 -2.38542e-015
rhumerus -37.4457 -26.3145 -80.7668
rradius 16.9256
rwrist 21.7712
rhand -36.3327 0.963496
rfingers 7.12502
rthumb -9.43086 -28.8055
lclavicle -1.2921e-014 -2.38542e-015
lhumerus -39.9545 17.6834 80.3359
lradius 19.9021
lwrist -41.5108
lhand -32.3106 2.86703
lfingers 7.12502
lthumb -5.54865 32.7744
rfemur -8.90995 -18.6439 21.071
rtibia 11.768
rfoot -9.70912 12.6802
rtoes -1.43125e-014
lfemur -15.2951 19.8467 -19.0347
ltibia 14.6595
lfoot -2.01959 -20.2983
ltoes 1.59028e-014
542
root -13.8377 16.736 5.01701 -321.732 92.9638 -331.018
lowerback -11.8578 -1.31025 2.15719
upperback -4.88737 -1.75229 -0.605975
thorax 1.44858 -0.816947 -2.0648
lowerneck -8.93423 -13.2313 -8.24086
upperneck 5.07366 40.7711 5.56351
head 166.149 58.5518 -38.6427
rclavicle -1.71203e-014 -6.75868e-015
rhumerus -37.4268 -26.3984 -80.7169
rradius 16.8875
rwrist 21.8763
rhand -36.3452 1.016
rfingers 7.12502
rthumb -9.44288 -28.7524
lclavicle -1.71203e-014 -6.75868e-015
lhumerus -39.9237 17.8117 80.2807
lradius 19.8694
lwrist -41.7241
lhand -32.4163 2.78697
lfingers 7.12502
lthumb -5.65066 32.6916
rfemur -8.9056 -18.6904 21.0762
rtibia 11.7684
rfoot -9.71729 12.7244
rtoes -4.69132e-014
lfemur -15.2903 19.8792 -19.0321
ltibia 14.6621
lfoot -2.05231 -20.3406
ltoes -4.29375e-014
